<?xml version="1.0" standalone="no"?>
<!DOCTYPE svg PUBLIC "-//W3C//DTD SVG 20010904//EN"
 "http://www.w3.org/TR/2001/REC-SVG-20010904/DTD/svg10.dtd">
<svg version="1.0" xmlns="http://www.w3.org/2000/svg"
 width="16.000000pt" height="16.000000pt" viewBox="0 0 16.000000 16.000000"
 preserveAspectRatio="xMidYMid meet">
<metadata>
Created by potrace 1.11, written by Peter Selinger 2001-2013
</metadata>
<g transform="translate(0.000000,16.000000) scale(0.008889,-0.008889)"
fill="#000000" stroke="none">
<path d="M805 1780 c-16 -5 -66 -16 -110 -25 -265 -56 -497 -243 -614 -497
-62 -132 -76 -201 -75 -363 1 -165 19 -247 85 -380 112 -227 336 -406 579
-466 47 -11 101 -25 121 -31 20 -5 76 -8 125 -5 352 19 656 216 799 518 59
126 78 214 78 369 0 162 -20 248 -89 386 -111 225 -340 407 -584 464 -47 11
-104 24 -128 30 -49 12 -144 12 -187 0z m292 -56 c166 -41 302 -120 423 -244
118 -121 197 -273 225 -434 19 -112 19 -180 0 -292 -30 -167 -109 -317 -235
-444 -144 -143 -315 -226 -522 -251 -163 -20 -375 22 -515 102 -204 117 -361
321 -419 544 -25 96 -25 294 0 390 24 94 93 236 150 312 131 173 342 298 561
333 82 12 250 5 332 -16z"/>
<path d="M793 1693 c-17 -3 -23 -11 -23 -31 l0 -27 19 24 c12 16 24 22 35 18
22 -9 20 -34 -4 -49 -27 -17 -25 -28 4 -28 28 0 40 -24 26 -51 -14 -25 -28
-24 -57 3 -19 18 -23 19 -23 5 0 -9 11 -24 24 -32 18 -12 29 -13 52 -5 16 6
32 17 36 23 15 23 8 56 -13 68 -15 8 -18 14 -10 22 17 17 13 45 -8 57 -11 5
-23 9 -28 9 -4 -1 -18 -4 -30 -6z"/>
<path d="M1061 1606 c-23 -35 -52 -67 -64 -71 -21 -6 -22 -6 -2 -15 28 -12 57
-12 50 0 -7 11 34 90 47 90 4 0 8 -22 8 -50 0 -27 -4 -50 -10 -50 -5 0 -10 -4
-10 -9 0 -9 71 -24 78 -16 3 3 0 11 -7 18 -6 8 -14 48 -17 91 -5 50 -11 76
-19 76 -7 0 -31 -29 -54 -64z"/>
<path d="M559 1560 c-7 -44 -15 -80 -18 -80 -13 0 -50 80 -45 94 8 20 -1 20
-37 -1 -33 -20 -36 -29 -11 -35 10 -3 32 -33 50 -67 19 -34 37 -59 42 -56 5 3
16 39 26 80 l18 75 23 -40 c13 -22 21 -45 18 -50 -11 -18 22 -11 46 10 19 15
21 19 7 20 -9 0 -30 25 -50 62 -19 34 -39 63 -45 65 -6 2 -16 -29 -24 -77z"/>
<path d="M1325 1537 c-13 -11 -17 -22 -12 -44 6 -28 3 -31 -26 -39 -18 -4 -40
-7 -51 -6 -16 2 -17 0 -5 -14 13 -16 38 -15 98 2 21 6 22 5 12 -15 -7 -11 -18
-21 -26 -21 -22 0 -18 -17 7 -34 25 -18 42 -21 33 -6 -9 15 67 109 88 110 24
0 14 15 -35 51 -46 33 -56 35 -83 16z m75 -36 c-1 -3 -10 -17 -21 -30 -17 -21
-22 -22 -30 -10 -13 21 -11 37 8 47 17 10 43 6 43 -7z"/>
<path d="M750 1464 c-209 -55 -372 -221 -426 -434 -22 -86 -14 -231 16 -317
57 -163 200 -306 363 -363 78 -28 232 -37 319 -21 211 41 398 218 453 427 19
75 19 213 0 288 -52 200 -221 367 -425 421 -70 19 -228 18 -300 -1z m279 -19
c104 -25 188 -72 267 -150 228 -224 230 -560 5 -786 -117 -117 -239 -169 -398
-169 -324 0 -585 278 -560 599 7 89 39 187 86 260 42 64 142 158 208 194 113
61 267 81 392 52z"/>
<path d="M750 1422 c-241 -81 -390 -279 -390 -519 0 -156 50 -281 153 -385
217 -220 554 -221 772 -3 71 71 112 139 143 239 21 70 21 215 -2 291 -50 169
-179 307 -341 367 -84 30 -257 36 -335 10z m321 -27 c237 -80 386 -323 351
-569 -39 -273 -280 -471 -552 -453 -277 18 -488 237 -493 512 -1 100 15 170
62 260 77 150 243 262 411 278 65 6 154 -5 221 -28z"/>
<path d="M979 1231 c-33 -34 -39 -83 -13 -119 9 -13 14 -25 13 -26 -16 -14
-128 -64 -133 -59 -3 4 -6 55 -6 115 0 80 -3 108 -12 108 -17 -1 -239 -67
-245 -74 -12 -12 28 -56 50 -56 44 0 47 -12 47 -227 l0 -202 31 -35 c32 -37
79 -69 117 -81 l23 -7 -3 156 c-2 86 -1 156 2 156 3 0 21 -30 39 -67 56 -116
117 -198 169 -231 48 -31 128 -60 138 -50 3 3 -14 44 -37 89 -46 93 -83 193
-94 258 -5 33 -13 45 -38 58 -18 8 -47 29 -65 45 l-33 28 36 16 c110 46 144
64 164 90 29 37 22 79 -19 117 -42 38 -92 37 -131 -2z"/>
<path d="M286 1426 c-18 -26 -18 -29 -3 -38 10 -5 17 -21 17 -39 0 -27 -2 -28
-20 -17 -11 7 -20 18 -20 25 0 20 -17 15 -34 -9 -18 -25 -21 -42 -6 -33 12 8
119 -66 120 -82 0 -19 9 -16 31 10 25 29 24 37 -5 37 -13 0 -29 7 -36 15 -11
13 -6 15 34 15 33 0 52 6 67 21 21 21 19 39 -3 22 -7 -5 -35 -9 -63 -8 l-50 1
-5 55 -5 54 -19 -29z"/>
<path d="M1550 1348 c-1 -20 -105 -79 -125 -71 -10 3 -16 2 -14 -3 29 -62 49
-83 49 -50 0 12 95 76 114 76 3 0 6 -9 6 -20 0 -25 -30 -41 -53 -29 -27 16
-21 -8 8 -27 58 -38 94 20 55 93 -22 42 -40 55 -40 31z"/>
<path d="M156 938 c-19 -11 -21 -49 -4 -66 30 -30 75 0 64 42 -7 27 -35 38
-60 24z"/>
<path d="M1606 914 c-20 -19 -20 -48 -1 -64 19 -16 45 -9 62 17 13 19 12 24
-6 42 -25 25 -35 26 -55 5z"/>
<path d="M222 677 c-36 -37 -39 -47 -17 -47 8 0 15 -4 15 -10 0 -5 -4 -10 -10
-10 -5 0 -10 -4 -10 -10 0 -5 23 -10 50 -10 59 0 64 -14 24 -67 l-25 -33 27 0
c23 0 25 -2 14 -15 -18 -22 -10 -25 39 -14 57 13 67 2 47 -46 -21 -49 -20 -58
3 -50 16 5 18 2 14 -14 -5 -19 -3 -20 26 -10 17 6 33 15 36 20 3 4 13 6 23 3
10 -4 5 6 -13 23 -58 55 -123 138 -151 193 -15 30 -30 57 -33 60 -4 3 -7 16
-9 30 -4 40 -16 42 -50 7z m27 -28 c-25 -16 -32 -9 -13 12 12 13 20 16 22 9 3
-7 -2 -16 -9 -21z m36 -29 c4 -6 -5 -10 -20 -10 -15 0 -24 4 -20 10 3 6 12 10
20 10 8 0 17 -4 20 -10z m30 -100 c-10 -11 -20 -18 -23 -15 -7 6 18 35 31 35
5 0 2 -9 -8 -20z m45 -30 c0 -5 -4 -10 -9 -10 -5 0 -18 -3 -28 -7 -16 -6 -16
-5 -4 10 15 19 41 23 41 7z m60 -67 c0 -14 -19 -38 -25 -32 -8 8 5 39 16 39 5
0 9 -3 9 -7z m26 -48 c-26 -19 -42 -19 -26 0 7 8 20 15 29 15 13 -1 13 -3 -3
-15z"/>
<path d="M1526 694 c-8 -22 -8 -26 3 -20 18 12 61 -13 61 -34 0 -17 -4 -20
-22 -14 -13 3 -29 11 -36 17 -10 8 -16 7 -22 -4 -7 -11 0 -17 31 -27 44 -15
69 -5 69 27 0 9 5 22 12 29 9 9 8 12 -7 12 -11 0 -33 7 -49 15 -35 18 -33 18
-40 -1z"/>
<path d="M1472 569 c-7 -12 -12 -22 -10 -23 2 -1 21 -12 42 -25 31 -17 41 -19
47 -9 6 8 3 14 -6 16 -22 5 -18 22 4 22 11 0 23 5 27 11 5 8 -1 10 -18 6 -18
-5 -28 -2 -32 8 -8 22 -39 18 -54 -6z m43 -9 c3 -5 -1 -10 -9 -10 -8 0 -18 5
-21 10 -3 6 1 10 9 10 8 0 18 -4 21 -10z"/>
<path d="M1410 475 c-13 -14 -19 -25 -13 -25 6 0 24 -13 41 -28 28 -26 30 -27
41 -10 9 14 8 18 -5 18 -11 0 -14 6 -9 20 6 20 -9 50 -24 50 -4 0 -18 -11 -31
-25z m38 -14 c3 -8 -1 -12 -9 -9 -7 2 -15 10 -17 17 -3 8 1 12 9 9 7 -2 15
-10 17 -17z"/>
<path d="M1500 470 c0 -5 5 -10 10 -10 6 0 10 5 10 10 0 6 -4 10 -10 10 -5 0
-10 -4 -10 -10z"/>
<path d="M1340 404 c-10 -11 -11 -23 -4 -42 8 -22 16 -27 43 -27 43 0 60 23
43 59 -14 30 -61 36 -82 10z m55 -14 c17 -19 15 -50 -3 -50 -17 0 -44 39 -39
55 8 20 20 19 42 -5z"/>
<path d="M1290 360 c-11 -7 -11 -12 -2 -23 10 -11 9 -17 -2 -27 -16 -13 -40
-5 -31 11 7 10 -18 13 -28 3 -3 -4 6 -23 21 -43 14 -20 27 -38 28 -40 2 -1 8
0 14 4 8 5 8 11 -1 21 -10 12 -9 18 5 32 16 16 17 16 22 -5 5 -19 9 -21 26
-12 17 9 18 12 4 22 -8 7 -21 24 -29 39 -9 18 -17 24 -27 18z"/>
<path d="M511 343 c3 -18 -2 -31 -22 -52 -18 -19 -19 -25 -8 -32 18 -11 32
-11 24 0 -3 5 -1 12 5 16 5 3 10 -3 10 -13 0 -11 7 -25 15 -32 12 -10 13 -6 8
24 -5 32 -3 36 22 42 17 4 23 10 17 16 -6 6 -17 6 -31 -1 -12 -7 -21 -8 -21
-2 0 5 6 12 13 14 9 4 8 8 -3 16 -18 13 -30 14 -29 4z"/>
<path d="M430 300 c0 -5 7 -10 15 -10 8 0 15 5 15 10 0 6 -7 10 -15 10 -8 0
-15 -4 -15 -10z"/>
<path d="M1177 292 c-19 -20 -11 -36 21 -46 12 -4 22 -12 22 -17 0 -6 -9 -8
-20 -4 -15 5 -18 3 -14 -9 8 -20 28 -20 44 -1 17 20 6 43 -25 51 -14 3 -25 10
-25 16 0 5 10 6 22 2 20 -6 21 -5 9 10 -16 20 -15 20 -34 -2z"/>
<path d="M594 254 c-17 -36 -18 -44 -6 -49 19 -7 24 -6 18 3 -3 5 4 23 15 40
23 38 23 39 7 44 -8 3 -22 -13 -34 -38z"/>
<path d="M654 258 c-5 -7 -2 -9 8 -6 8 4 20 3 27 -1 8 -5 0 -16 -23 -32 -20
-13 -36 -26 -36 -29 0 -10 69 -31 80 -25 19 12 10 22 -15 17 -35 -6 -31 11 11
40 l35 26 -32 11 c-40 14 -46 14 -55 -1z"/>
<path d="M756 235 c3 -8 1 -29 -5 -46 -6 -18 -10 -33 -8 -35 9 -9 61 -7 64 3
3 7 -3 9 -16 6 -24 -6 -25 -1 -12 44 7 25 6 33 -6 37 -21 9 -23 8 -17 -9z"/>
<path d="M1022 243 c-9 -3 -10 -8 -2 -18 6 -7 12 -27 13 -44 1 -22 7 -31 20
-31 14 0 17 5 12 21 -7 20 -6 20 19 3 31 -19 49 -11 21 10 -11 8 -20 25 -20
38 0 17 -6 23 -25 25 -14 1 -31 -1 -38 -4z m48 -24 c0 -5 -4 -9 -10 -9 -5 0
-10 7 -10 16 0 8 5 12 10 9 6 -3 10 -10 10 -16z"/>
<path d="M820 231 c0 -5 7 -14 16 -22 10 -8 14 -23 12 -41 -4 -22 -1 -28 13
-28 12 0 16 5 13 15 -3 8 4 28 16 45 18 25 19 30 6 30 -9 0 -16 -7 -16 -15 0
-8 -4 -15 -10 -15 -5 0 -10 6 -10 14 0 8 -7 17 -16 20 -21 8 -24 8 -24 -3z"/>
<path d="M947 233 c-4 -3 -7 -13 -7 -22 0 -9 -7 -28 -14 -43 -14 -26 -13 -28
4 -28 13 0 17 5 14 15 -4 9 0 15 10 15 9 0 16 -7 16 -15 0 -8 8 -15 19 -15 17
0 17 3 -5 47 -28 54 -29 55 -37 46z"/>
<path d="M1134 215 c-10 -8 -14 -14 -9 -15 15 0 40 18 34 24 -3 3 -14 -1 -25
-9z"/>
</g>
</svg>
