<?xml version="1.0" encoding="UTF-8" standalone="no"?>
<!-- Generator: Adobe Illustrator 21.0.0, SVG Export Plug-In . SVG Version: 6.00 Build 0)  -->

<svg
   xmlns:dc="http://purl.org/dc/elements/1.1/"
   xmlns:cc="http://creativecommons.org/ns#"
   xmlns:rdf="http://www.w3.org/1999/02/22-rdf-syntax-ns#"
   xmlns:svg="http://www.w3.org/2000/svg"
   xmlns="http://www.w3.org/2000/svg"
   xmlns:xlink="http://www.w3.org/1999/xlink"
   xmlns:sodipodi="http://sodipodi.sourceforge.net/DTD/sodipodi-0.dtd"
   xmlns:inkscape="http://www.inkscape.org/namespaces/inkscape"
   version="1.1"
   id="Слой_1"
   x="0px"
   y="0px"
   viewBox="0 0 43.125 40"
   xml:space="preserve"
   inkscape:version="0.91 r13725"
   sodipodi:docname="heart.svg"
   width="43.125"
   height="40"><metadata
     id="metadata21"><rdf:RDF><cc:Work
         rdf:about=""><dc:format>image/svg+xml</dc:format><dc:type
           rdf:resource="http://purl.org/dc/dcmitype/StillImage" /><dc:title></dc:title></cc:Work></rdf:RDF></metadata><defs
     id="defs19" /><sodipodi:namedview
     pagecolor="#ffffff"
     bordercolor="#666666"
     borderopacity="1"
     objecttolerance="10"
     gridtolerance="10"
     guidetolerance="10"
     inkscape:pageopacity="0"
     inkscape:pageshadow="2"
     inkscape:window-width="1536"
     inkscape:window-height="811"
     id="namedview17"
     showgrid="false"
     fit-margin-top="0"
     fit-margin-left="0"
     fit-margin-right="0"
     fit-margin-bottom="0"
     inkscape:zoom="0.1668772"
     inkscape:cx="-1444.6344"
     inkscape:cy="152.45386"
     inkscape:window-x="-8"
     inkscape:window-y="22"
     inkscape:window-maximized="1"
     inkscape:current-layer="Слой_1" /><style
     type="text/css"
     id="style3">
	.st0{clip-path:url(#SVGID_2_);fill:#0072BC;}
</style><g
     id="g5"
     transform="matrix(1.0869565,0,0,1.0869565,-1065.3532,-1067.6087)"><g
       id="g7"><defs
         id="defs9"><rect
           id="SVGID_1_"
           x="980"
           y="982"
           width="39.799999"
           height="37.900002" /></defs><clipPath
         id="SVGID_2_"><use
           xlink:href="#SVGID_1_"
           style="overflow:visible"
           id="use13"
           x="0"
           y="0"
           width="100%"
           height="100%" /></clipPath><path
         class="st0"
         d="m 999.9,988.7 c 1.6,-3.8 5.3,-6.5 9.6,-6.5 5.8,0 9.9,4.9 10.5,10.8 0,0 0.3,1.5 -0.3,4.1 -0.8,3.6 -2.8,6.8 -5.5,9.2 l -14.2,12.7 -14,-12.7 c -2.7,-2.4 -4.7,-5.6 -5.5,-9.2 -0.6,-2.6 -0.3,-4.1 -0.3,-4.1 0.5,-5.9 4.7,-10.8 10.5,-10.8 4.1,0 7.6,2.6 9.2,6.5 l 0,0 z m 0,0"
         id="path15"
         clip-path="url(#SVGID_2_)"
         inkscape:connector-curvature="0"
         style="fill:#0072bc" /></g></g></svg>