<?xml version="1.0" encoding="UTF-8" standalone="no"?>
<!-- Generator: Adobe Illustrator 19.1.0, SVG Export Plug-In . SVG Version: 6.00 Build 0)  -->

<svg
   xmlns:dc="http://purl.org/dc/elements/1.1/"
   xmlns:cc="http://creativecommons.org/ns#"
   xmlns:rdf="http://www.w3.org/1999/02/22-rdf-syntax-ns#"
   xmlns:svg="http://www.w3.org/2000/svg"
   xmlns="http://www.w3.org/2000/svg"
   xmlns:sodipodi="http://sodipodi.sourceforge.net/DTD/sodipodi-0.dtd"
   xmlns:inkscape="http://www.inkscape.org/namespaces/inkscape"
   version="1.1"
   id="Capa_1"
   x="0px"
   y="0px"
   viewBox="0 0 41.916949 36.851641"
   xml:space="preserve"
   width="45.498055"
   height="40"
   inkscape:version="0.91 r13725"
   sodipodi:docname="heart.svg"><metadata
     id="metadata41"><rdf:RDF><cc:Work
         rdf:about=""><dc:format>image/svg+xml</dc:format><dc:type
           rdf:resource="http://purl.org/dc/dcmitype/StillImage" /><dc:title></dc:title></cc:Work></rdf:RDF></metadata><defs
     id="defs39" /><sodipodi:namedview
     pagecolor="#ffffff"
     bordercolor="#666666"
     borderopacity="1"
     objecttolerance="10"
     gridtolerance="10"
     guidetolerance="10"
     inkscape:pageopacity="0"
     inkscape:pageshadow="2"
     inkscape:window-width="1536"
     inkscape:window-height="841"
     id="namedview37"
     showgrid="false"
     fit-margin-top="0"
     fit-margin-left="0"
     fit-margin-right="0"
     fit-margin-bottom="0"
     showborder="false"
     inkscape:showpageshadow="true"
     borderlayer="false"
     inkscape:zoom="7.375"
     inkscape:cx="21.940183"
     inkscape:cy="15.957605"
     inkscape:window-x="-8"
     inkscape:window-y="-8"
     inkscape:window-maximized="1"
     inkscape:current-layer="Capa_1" /><g
     id="g3"
     style="fill:#000000;fill-opacity:1;stroke:none;stroke-opacity:1"
     transform="matrix(0.08886337,0,0,0.08886337,-4.0204302e-5,-2.5326949)"><path
       d="m 433.601,67.001 c -24.7,-24.7 -57.4,-38.2 -92.3,-38.2 -34.9,0 -67.7,13.6 -92.4,38.3 l -12.9,12.9 -13.1,-13.1 c -24.7,-24.7 -57.6,-38.4 -92.5,-38.4 -34.8,0 -67.6,13.6 -92.2,38.2 -24.7,24.7 -38.3,57.5 -38.2,92.4 0,34.9 13.7,67.6 38.4,92.3 l 187.8,187.8 c 2.6,2.6 6.1,4 9.5,4 3.4,0 6.9,-1.3 9.5,-3.9 l 188.2,-187.5 c 24.7,-24.7 38.3,-57.5 38.3,-92.4 0.1,-34.9 -13.4,-67.7 -38.1,-92.4 z m -19.2,165.7 -178.7,178 -178.3,-178.3 c -19.6,-19.6 -30.4,-45.6 -30.4,-73.3 0,-27.7 10.7,-53.7 30.3,-73.2 19.5,-19.5 45.5,-30.3 73.1,-30.3 27.7,0 53.8,10.8 73.4,30.4 l 22.6,22.6 c 5.3,5.3 13.8,5.3 19.1,0 l 22.4,-22.4 c 19.6,-19.6 45.7,-30.4 73.3,-30.4 27.6,0 53.6,10.8 73.2,30.3 19.6,19.6 30.3,45.6 30.3,73.3 0.1,27.7 -10.7,53.7 -30.3,73.3 z"
       id="path5"
       style="fill:#0072bc;fill-opacity:1;stroke:none;stroke-opacity:1"
       inkscape:connector-curvature="0" /></g><g
     id="g7"
     transform="translate(-4.5242828e-4,-406.34935)" /><g
     id="g9"
     transform="translate(-4.5242828e-4,-406.34935)" /><g
     id="g11"
     transform="translate(-4.5242828e-4,-406.34935)" /><g
     id="g13"
     transform="translate(-4.5242828e-4,-406.34935)" /><g
     id="g15"
     transform="translate(-4.5242828e-4,-406.34935)" /><g
     id="g17"
     transform="translate(-4.5242828e-4,-406.34935)" /><g
     id="g19"
     transform="translate(-4.5242828e-4,-406.34935)" /><g
     id="g21"
     transform="translate(-4.5242828e-4,-406.34935)" /><g
     id="g23"
     transform="translate(-4.5242828e-4,-406.34935)" /><g
     id="g25"
     transform="translate(-4.5242828e-4,-406.34935)" /><g
     id="g27"
     transform="translate(-4.5242828e-4,-406.34935)" /><g
     id="g29"
     transform="translate(-4.5242828e-4,-406.34935)" /><g
     id="g31"
     transform="translate(-4.5242828e-4,-406.34935)" /><g
     id="g33"
     transform="translate(-4.5242828e-4,-406.34935)" /><g
     id="g35"
     transform="translate(-4.5242828e-4,-406.34935)" /></svg>